<svg width="194" height="164" viewBox="0 0 194 164" fill="none" xmlns="http://www.w3.org/2000/svg">
<path d="M118.074 37.3626C119.363 37.3626 120.944 38.635 121.602 40.2015L131.174 62.8065V93.1593C131.174 94.9736 130.456 96.7135 129.178 97.9964C127.899 99.2793 126.165 100 124.357 100H69.8146C68.0065 100 66.2723 99.2793 64.9938 97.9964C63.7152 96.7135 62.9969 94.9736 62.9969 93.1593V62.8031L72.569 40.2049C73.2235 38.635 74.8086 37.3626 76.0972 37.3626H118.074ZM84.4277 67.5915H67.7693V93.1593C67.7693 93.7036 67.9848 94.2256 68.3684 94.6105C68.7519 94.9953 69.2722 95.2115 69.8146 95.2115H124.357C124.899 95.2115 125.419 94.9953 125.803 94.6105C126.187 94.2256 126.402 93.7036 126.402 93.1593V67.5915H110.056C109.276 70.4003 107.601 72.8757 105.288 74.6393C102.974 76.4029 100.148 77.3577 97.2417 77.3577C94.3359 77.3577 91.5099 76.4029 89.1959 74.6393C86.882 72.8757 85.2072 70.4003 84.4277 67.5915ZM117.242 42.1511H76.929L68.1784 62.8031H88.8047C88.6325 64.0156 88.722 65.2512 89.067 66.4261C89.412 67.601 90.0046 68.6878 90.8046 69.613C91.6046 70.5381 92.5933 71.28 93.7039 71.7885C94.8145 72.297 96.021 72.5601 97.2417 72.5601C98.4625 72.5601 99.6689 72.297 100.78 71.7885C101.89 71.28 102.879 70.5381 103.679 69.613C104.479 68.6878 105.071 67.601 105.416 66.4261C105.761 65.2512 105.851 64.0156 105.679 62.8031H125.993L117.242 42.1511Z" fill="#D4D5D8"/>
<path d="M93.6768 13.4203C93.6768 11.5313 95.203 10 97.0857 10C98.9683 10 100.495 11.5313 100.495 13.4203V23.6813C100.495 25.5703 98.9683 27.1016 97.0857 27.1016C95.203 27.1016 93.6768 25.5703 93.6768 23.6813V13.4203Z" fill="#D4D5D8"/>
<path d="M61.9984 24.0958C60.6672 22.76 60.6672 20.5944 61.9984 19.2587C63.3297 17.923 65.4881 17.923 66.8193 19.2587L74.0506 26.5143C75.3819 27.85 75.3819 30.0157 74.0506 31.3514C72.7194 32.6871 70.561 32.6871 69.2298 31.3514L61.9984 24.0958Z" fill="#D4D5D8"/>
<path d="M132.002 24.0958C133.333 22.76 133.333 20.5944 132.002 19.2587C130.67 17.923 128.512 17.923 127.181 19.2587L119.949 26.5143C118.618 27.85 118.618 30.0157 119.949 31.3514C121.281 32.6871 123.439 32.6871 124.77 31.3514L132.002 24.0958Z" fill="#D4D5D8"/>
<path d="M46.2876 116.364V128H44.674L38.7592 119.466H38.6513V128H36.8956V116.364H38.5206L44.4411 124.909H44.549V116.364H46.2876ZM52.3885 128.176C51.5703 128.176 50.8563 127.989 50.2464 127.614C49.6366 127.239 49.1631 126.714 48.826 126.04C48.4889 125.366 48.3203 124.578 48.3203 123.676C48.3203 122.771 48.4889 121.979 48.826 121.301C49.1631 120.623 49.6366 120.097 50.2464 119.722C50.8563 119.347 51.5703 119.159 52.3885 119.159C53.2067 119.159 53.9207 119.347 54.5305 119.722C55.1404 120.097 55.6139 120.623 55.951 121.301C56.2881 121.979 56.4567 122.771 56.4567 123.676C56.4567 124.578 56.2881 125.366 55.951 126.04C55.6139 126.714 55.1404 127.239 54.5305 127.614C53.9207 127.989 53.2067 128.176 52.3885 128.176ZM52.3942 126.75C52.9245 126.75 53.3639 126.61 53.7124 126.33C54.0608 126.049 54.3184 125.676 54.4851 125.21C54.6555 124.744 54.7408 124.231 54.7408 123.67C54.7408 123.114 54.6555 122.602 54.4851 122.136C54.3184 121.667 54.0608 121.29 53.7124 121.006C53.3639 120.722 52.9245 120.58 52.3942 120.58C51.8601 120.58 51.4169 120.722 51.0646 121.006C50.7161 121.29 50.4567 121.667 50.2862 122.136C50.1196 122.602 50.0362 123.114 50.0362 123.67C50.0362 124.231 50.1196 124.744 50.2862 125.21C50.4567 125.676 50.7161 126.049 51.0646 126.33C51.4169 126.61 51.8601 126.75 52.3942 126.75ZM66.7408 119.273V120.636H61.8089V119.273H66.7408ZM63.1612 128V118.261C63.1612 117.716 63.2805 117.263 63.5192 116.903C63.7578 116.54 64.0741 116.269 64.468 116.091C64.862 115.909 65.29 115.818 65.7521 115.818C66.093 115.818 66.3847 115.847 66.6271 115.903C66.8696 115.956 67.0495 116.006 67.1669 116.051L66.7692 117.426C66.6896 117.403 66.5874 117.377 66.4624 117.347C66.3374 117.312 66.1858 117.295 66.0078 117.295C65.5949 117.295 65.2995 117.398 65.1214 117.602C64.9472 117.807 64.8601 118.102 64.8601 118.489V128H63.1612ZM71.826 128.176C71.0078 128.176 70.2938 127.989 69.6839 127.614C69.0741 127.239 68.6006 126.714 68.2635 126.04C67.9264 125.366 67.7578 124.578 67.7578 123.676C67.7578 122.771 67.9264 121.979 68.2635 121.301C68.6006 120.623 69.0741 120.097 69.6839 119.722C70.2938 119.347 71.0078 119.159 71.826 119.159C72.6442 119.159 73.3582 119.347 73.968 119.722C74.5779 120.097 75.0514 120.623 75.3885 121.301C75.7256 121.979 75.8942 122.771 75.8942 123.676C75.8942 124.578 75.7256 125.366 75.3885 126.04C75.0514 126.714 74.5779 127.239 73.968 127.614C73.3582 127.989 72.6442 128.176 71.826 128.176ZM71.8317 126.75C72.362 126.75 72.8014 126.61 73.1499 126.33C73.4983 126.049 73.7559 125.676 73.9226 125.21C74.093 124.744 74.1783 124.231 74.1783 123.67C74.1783 123.114 74.093 122.602 73.9226 122.136C73.7559 121.667 73.4983 121.29 73.1499 121.006C72.8014 120.722 72.362 120.58 71.8317 120.58C71.2976 120.58 70.8544 120.722 70.5021 121.006C70.1536 121.29 69.8942 121.667 69.7237 122.136C69.5571 122.602 69.4737 123.114 69.4737 123.67C69.4737 124.231 69.5571 124.744 69.7237 125.21C69.8942 125.676 70.1536 126.049 70.5021 126.33C70.8544 126.61 71.2976 126.75 71.8317 126.75ZM77.7905 128V119.273H79.4325V120.659H79.5234C79.6825 120.189 79.9628 119.82 80.3643 119.551C80.7696 119.278 81.228 119.142 81.7393 119.142C81.8454 119.142 81.9704 119.146 82.1143 119.153C82.2621 119.161 82.3776 119.17 82.4609 119.182V120.807C82.3928 120.788 82.2715 120.767 82.0973 120.744C81.9231 120.718 81.7488 120.705 81.5746 120.705C81.1731 120.705 80.8151 120.79 80.5007 120.96C80.1901 121.127 79.9439 121.36 79.7621 121.659C79.5803 121.955 79.4893 122.292 79.4893 122.67V128H77.7905ZM83.9311 128V119.273H85.5618V120.693H85.6697C85.8516 120.212 86.1489 119.837 86.5618 119.568C86.9747 119.295 87.469 119.159 88.0447 119.159C88.6281 119.159 89.1167 119.295 89.5107 119.568C89.9084 119.841 90.2019 120.216 90.3913 120.693H90.4822C90.6906 120.227 91.022 119.856 91.4766 119.58C91.9311 119.299 92.4728 119.159 93.1016 119.159C93.8932 119.159 94.5391 119.407 95.0391 119.903C95.5429 120.4 95.7947 121.148 95.7947 122.148V128H94.0959V122.307C94.0959 121.716 93.9349 121.288 93.6129 121.023C93.291 120.758 92.9065 120.625 92.4595 120.625C91.9065 120.625 91.4766 120.795 91.1697 121.136C90.8629 121.473 90.7095 121.907 90.7095 122.438V128H89.0163V122.199C89.0163 121.725 88.8686 121.345 88.5732 121.057C88.2777 120.769 87.8932 120.625 87.4197 120.625C87.0978 120.625 86.8004 120.71 86.5277 120.881C86.2588 121.047 86.041 121.28 85.8743 121.58C85.7114 121.879 85.63 122.225 85.63 122.619V128H83.9311ZM104.612 121.403L103.072 121.676C103.007 121.479 102.905 121.292 102.765 121.114C102.629 120.936 102.443 120.79 102.208 120.676C101.973 120.562 101.68 120.506 101.327 120.506C100.846 120.506 100.445 120.614 100.123 120.83C99.8009 121.042 99.6399 121.316 99.6399 121.653C99.6399 121.945 99.7479 122.18 99.9638 122.358C100.18 122.536 100.528 122.682 101.009 122.795L102.396 123.114C103.199 123.299 103.797 123.585 104.191 123.972C104.585 124.358 104.782 124.86 104.782 125.477C104.782 126 104.63 126.466 104.327 126.875C104.028 127.28 103.61 127.598 103.072 127.83C102.538 128.061 101.918 128.176 101.214 128.176C100.237 128.176 99.4392 127.968 98.8217 127.551C98.2043 127.131 97.8255 126.534 97.6854 125.761L99.3274 125.511C99.4297 125.939 99.6399 126.263 99.9581 126.483C100.276 126.699 100.691 126.807 101.202 126.807C101.759 126.807 102.204 126.691 102.538 126.46C102.871 126.225 103.038 125.939 103.038 125.602C103.038 125.33 102.935 125.1 102.731 124.915C102.53 124.729 102.221 124.589 101.805 124.494L100.327 124.17C99.513 123.985 98.9107 123.689 98.5206 123.284C98.1342 122.879 97.9411 122.366 97.9411 121.744C97.9411 121.229 98.085 120.778 98.3729 120.392C98.6607 120.006 99.0585 119.705 99.5661 119.489C100.074 119.269 100.655 119.159 101.31 119.159C102.254 119.159 102.996 119.364 103.538 119.773C104.079 120.178 104.437 120.722 104.612 121.403ZM115.038 119.273V120.636H110.106V119.273H115.038ZM111.458 128V118.261C111.458 117.716 111.577 117.263 111.816 116.903C112.055 116.54 112.371 116.269 112.765 116.091C113.159 115.909 113.587 115.818 114.049 115.818C114.39 115.818 114.682 115.847 114.924 115.903C115.166 115.956 115.346 116.006 115.464 116.051L115.066 117.426C114.987 117.403 114.884 117.377 114.759 117.347C114.634 117.312 114.483 117.295 114.305 117.295C113.892 117.295 113.596 117.398 113.418 117.602C113.244 117.807 113.157 118.102 113.157 118.489V128H111.458ZM120.123 128.176C119.305 128.176 118.591 127.989 117.981 127.614C117.371 127.239 116.897 126.714 116.56 126.04C116.223 125.366 116.055 124.578 116.055 123.676C116.055 122.771 116.223 121.979 116.56 121.301C116.897 120.623 117.371 120.097 117.981 119.722C118.591 119.347 119.305 119.159 120.123 119.159C120.941 119.159 121.655 119.347 122.265 119.722C122.875 120.097 123.348 120.623 123.685 121.301C124.022 121.979 124.191 122.771 124.191 123.676C124.191 124.578 124.022 125.366 123.685 126.04C123.348 126.714 122.875 127.239 122.265 127.614C121.655 127.989 120.941 128.176 120.123 128.176ZM120.129 126.75C120.659 126.75 121.098 126.61 121.447 126.33C121.795 126.049 122.053 125.676 122.219 125.21C122.39 124.744 122.475 124.231 122.475 123.67C122.475 123.114 122.39 122.602 122.219 122.136C122.053 121.667 121.795 121.29 121.447 121.006C121.098 120.722 120.659 120.58 120.129 120.58C119.594 120.58 119.151 120.722 118.799 121.006C118.451 121.29 118.191 121.667 118.021 122.136C117.854 122.602 117.771 123.114 117.771 123.67C117.771 124.231 117.854 124.744 118.021 125.21C118.191 125.676 118.451 126.049 118.799 126.33C119.151 126.61 119.594 126.75 120.129 126.75ZM131.616 124.381V119.273H133.32V128H131.65V126.489H131.559C131.358 126.955 131.036 127.343 130.593 127.653C130.154 127.96 129.606 128.114 128.951 128.114C128.39 128.114 127.894 127.991 127.462 127.744C127.034 127.494 126.697 127.125 126.451 126.636C126.209 126.148 126.087 125.544 126.087 124.824V119.273H127.786V124.619C127.786 125.214 127.951 125.687 128.281 126.04C128.61 126.392 129.038 126.568 129.565 126.568C129.883 126.568 130.199 126.489 130.513 126.33C130.832 126.17 131.095 125.93 131.303 125.608C131.515 125.286 131.62 124.877 131.616 124.381ZM137.302 122.818V128H135.603V119.273H137.234V120.693H137.342C137.542 120.231 137.857 119.86 138.285 119.58C138.717 119.299 139.26 119.159 139.915 119.159C140.51 119.159 141.031 119.284 141.478 119.534C141.925 119.78 142.272 120.148 142.518 120.636C142.764 121.125 142.887 121.729 142.887 122.449V128H141.188V122.653C141.188 122.021 141.023 121.527 140.694 121.17C140.364 120.811 139.912 120.631 139.336 120.631C138.942 120.631 138.592 120.716 138.285 120.886C137.982 121.057 137.741 121.307 137.563 121.636C137.389 121.962 137.302 122.356 137.302 122.818ZM148.433 128.17C147.728 128.17 147.099 127.991 146.546 127.631C145.997 127.267 145.565 126.75 145.251 126.08C144.94 125.405 144.785 124.597 144.785 123.653C144.785 122.71 144.942 121.903 145.256 121.233C145.575 120.562 146.01 120.049 146.563 119.693C147.116 119.337 147.743 119.159 148.444 119.159C148.986 119.159 149.421 119.25 149.751 119.432C150.084 119.61 150.342 119.818 150.523 120.057C150.709 120.295 150.853 120.506 150.955 120.688H151.058V116.364H152.756V128H151.097V126.642H150.955C150.853 126.828 150.705 127.04 150.512 127.278C150.323 127.517 150.061 127.725 149.728 127.903C149.395 128.081 148.963 128.17 148.433 128.17ZM148.808 126.722C149.296 126.722 149.709 126.593 150.046 126.335C150.387 126.074 150.645 125.712 150.819 125.25C150.997 124.788 151.086 124.25 151.086 123.636C151.086 123.03 150.999 122.5 150.825 122.045C150.65 121.591 150.395 121.237 150.058 120.983C149.72 120.729 149.304 120.602 148.808 120.602C148.296 120.602 147.87 120.735 147.529 121C147.188 121.265 146.931 121.627 146.756 122.085C146.586 122.544 146.501 123.061 146.501 123.636C146.501 124.22 146.588 124.744 146.762 125.21C146.936 125.676 147.194 126.045 147.535 126.318C147.879 126.587 148.304 126.722 148.808 126.722ZM156.3 128.108C155.99 128.108 155.723 127.998 155.499 127.778C155.276 127.555 155.164 127.286 155.164 126.972C155.164 126.661 155.276 126.396 155.499 126.176C155.723 125.953 155.99 125.841 156.3 125.841C156.611 125.841 156.878 125.953 157.102 126.176C157.325 126.396 157.437 126.661 157.437 126.972C157.437 127.18 157.384 127.371 157.278 127.545C157.175 127.716 157.039 127.852 156.869 127.955C156.698 128.057 156.509 128.108 156.3 128.108Z" fill="#2B2D32" fill-opacity="0.64"/>
<path d="M66.0724 142.129H64.5212C64.4616 141.798 64.3505 141.506 64.1881 141.254C64.0257 141.002 63.8269 140.789 63.5915 140.613C63.3562 140.437 63.0927 140.305 62.801 140.215C62.5127 140.126 62.2061 140.081 61.8813 140.081C61.2947 140.081 60.7693 140.228 60.3053 140.523C59.8446 140.818 59.48 141.251 59.2116 141.821C58.9464 142.391 58.8138 143.087 58.8138 143.909C58.8138 144.738 58.9464 145.437 59.2116 146.007C59.48 146.577 59.8463 147.008 60.3103 147.3C60.7743 147.591 61.2963 147.737 61.8763 147.737C62.1978 147.737 62.5028 147.694 62.7911 147.608C63.0828 147.518 63.3463 147.388 63.5816 147.215C63.8169 147.043 64.0158 146.832 64.1782 146.584C64.3439 146.332 64.4582 146.044 64.5212 145.719L66.0724 145.724C65.9895 146.224 65.8287 146.685 65.5901 147.106C65.3548 147.523 65.0515 147.885 64.6803 148.19C64.3124 148.491 63.8915 148.725 63.4175 148.891C62.9436 149.056 62.4265 149.139 61.8664 149.139C60.9848 149.139 60.1992 148.93 59.5099 148.513C58.8205 148.092 58.2769 147.49 57.8792 146.708C57.4848 145.926 57.2876 144.993 57.2876 143.909C57.2876 142.822 57.4864 141.889 57.8841 141.11C58.2819 140.328 58.8254 139.728 59.5148 139.31C60.2042 138.889 60.9881 138.679 61.8664 138.679C62.4066 138.679 62.9104 138.757 63.3778 138.913C63.8484 139.065 64.271 139.29 64.6455 139.589C65.02 139.884 65.3299 140.245 65.5752 140.673C65.8205 141.097 65.9862 141.582 66.0724 142.129ZM67.7913 149V141.364H69.2281V142.577H69.3076C69.4468 142.166 69.6921 141.843 70.0434 141.607C70.3981 141.369 70.7991 141.249 71.2465 141.249C71.3393 141.249 71.4487 141.253 71.5747 141.259C71.7039 141.266 71.805 141.274 71.8779 141.284V142.706C71.8183 142.689 71.7122 142.671 71.5597 142.651C71.4073 142.628 71.2548 142.616 71.1024 142.616C70.751 142.616 70.4378 142.691 70.1627 142.84C69.891 142.986 69.6755 143.19 69.5164 143.452C69.3573 143.71 69.2778 144.005 69.2778 144.337V149H67.7913ZM76.1821 149.154C75.4297 149.154 74.7818 148.993 74.2382 148.672C73.6979 148.347 73.2803 147.891 72.9854 147.305C72.6937 146.715 72.5479 146.024 72.5479 145.232C72.5479 144.449 72.6937 143.76 72.9854 143.163C73.2803 142.567 73.6913 142.101 74.2183 141.766C74.7486 141.432 75.3684 141.264 76.0777 141.264C76.5086 141.264 76.9262 141.335 77.3305 141.478C77.7349 141.621 78.0978 141.844 78.4193 142.149C78.7408 142.454 78.9943 142.85 79.18 143.337C79.3656 143.821 79.4584 144.41 79.4584 145.102V145.629H73.3881V144.516H78.0017C78.0017 144.125 77.9221 143.778 77.7631 143.477C77.604 143.172 77.3802 142.931 77.0919 142.756C76.8068 142.58 76.4721 142.492 76.0876 142.492C75.67 142.492 75.3054 142.595 74.9939 142.8C74.6856 143.003 74.447 143.268 74.278 143.596C74.1122 143.921 74.0294 144.274 74.0294 144.655V145.525C74.0294 146.035 74.1189 146.469 74.2979 146.827C74.4801 147.185 74.7337 147.459 75.0585 147.648C75.3833 147.833 75.7628 147.926 76.197 147.926C76.4787 147.926 76.7356 147.886 76.9676 147.807C77.1996 147.724 77.4001 147.601 77.5692 147.439C77.7382 147.277 77.8675 147.076 77.9569 146.837L79.3639 147.091C79.2512 147.505 79.049 147.868 78.7574 148.18C78.469 148.488 78.1061 148.728 77.6686 148.901C77.2344 149.07 76.7389 149.154 76.1821 149.154ZM83.33 149.169C82.8461 149.169 82.4086 149.08 82.0175 148.901C81.6264 148.718 81.3165 148.455 81.0878 148.11C80.8624 147.765 80.7497 147.343 80.7497 146.842C80.7497 146.411 80.8326 146.057 80.9983 145.778C81.164 145.5 81.3878 145.28 81.6695 145.117C81.9512 144.955 82.2661 144.832 82.6141 144.749C82.9621 144.666 83.3167 144.603 83.678 144.56C84.1354 144.507 84.5066 144.464 84.7916 144.431C85.0767 144.395 85.2838 144.337 85.4131 144.257C85.5423 144.178 85.607 144.048 85.607 143.869V143.835C85.607 143.4 85.4843 143.064 85.2391 142.825C84.9971 142.587 84.6359 142.467 84.1553 142.467C83.6548 142.467 83.2604 142.578 82.972 142.8C82.687 143.019 82.4898 143.263 82.3804 143.531L80.9834 143.213C81.1491 142.749 81.3911 142.375 81.7093 142.089C82.0307 141.801 82.4003 141.592 82.8179 141.463C83.2355 141.33 83.6747 141.264 84.1354 141.264C84.4403 141.264 84.7635 141.301 85.1048 141.374C85.4495 141.443 85.771 141.572 86.0693 141.761C86.3709 141.95 86.6179 142.22 86.8101 142.572C87.0023 142.92 87.0985 143.372 87.0985 143.929V149H85.6468V147.956H85.5871C85.491 148.148 85.3468 148.337 85.1546 148.523C84.9623 148.708 84.7154 148.862 84.4138 148.985C84.1122 149.108 83.7509 149.169 83.33 149.169ZM83.6531 147.976C84.0641 147.976 84.4155 147.895 84.7071 147.732C85.0021 147.57 85.2258 147.358 85.3783 147.096C85.5341 146.831 85.6119 146.547 85.6119 146.246V145.261C85.5589 145.314 85.4562 145.364 85.3037 145.411C85.1546 145.454 84.9839 145.492 84.7916 145.525C84.5994 145.555 84.4121 145.583 84.2298 145.609C84.0476 145.633 83.8951 145.652 83.7725 145.669C83.4841 145.705 83.2206 145.767 82.982 145.853C82.7467 145.939 82.5577 146.063 82.4152 146.226C82.276 146.385 82.2064 146.597 82.2064 146.862C82.2064 147.23 82.3423 147.509 82.6141 147.697C82.8859 147.883 83.2322 147.976 83.6531 147.976ZM92.643 141.364V142.557H88.4719V141.364H92.643ZM89.5905 139.534H91.077V146.758C91.077 147.046 91.1201 147.263 91.2062 147.409C91.2924 147.552 91.4034 147.649 91.5393 147.702C91.6785 147.752 91.8293 147.777 91.9917 147.777C92.1111 147.777 92.2155 147.769 92.305 147.752C92.3944 147.736 92.464 147.722 92.5138 147.712L92.7822 148.94C92.6961 148.973 92.5734 149.007 92.4143 149.04C92.2552 149.076 92.0564 149.096 91.8177 149.099C91.4266 149.106 91.0621 149.036 90.724 148.891C90.3859 148.745 90.1125 148.519 89.9037 148.214C89.6949 147.91 89.5905 147.527 89.5905 147.066V139.534ZM97.4965 149.154C96.7442 149.154 96.0962 148.993 95.5526 148.672C95.0124 148.347 94.5948 147.891 94.2998 147.305C94.0081 146.715 93.8623 146.024 93.8623 145.232C93.8623 144.449 94.0081 143.76 94.2998 143.163C94.5948 142.567 95.0058 142.101 95.5328 141.766C96.0631 141.432 96.6829 141.264 97.3921 141.264C97.823 141.264 98.2406 141.335 98.645 141.478C99.0493 141.621 99.4123 141.844 99.7338 142.149C100.055 142.454 100.309 142.85 100.494 143.337C100.68 143.821 100.773 144.41 100.773 145.102V145.629H94.7025V144.516H99.3161C99.3161 144.125 99.2366 143.778 99.0775 143.477C98.9184 143.172 98.6947 142.931 98.4063 142.756C98.1213 142.58 97.7865 142.492 97.4021 142.492C96.9845 142.492 96.6199 142.595 96.3083 142.8C96.0001 143.003 95.7615 143.268 95.5924 143.596C95.4267 143.921 95.3438 144.274 95.3438 144.655V145.525C95.3438 146.035 95.4333 146.469 95.6123 146.827C95.7946 147.185 96.0481 147.459 96.373 147.648C96.6978 147.833 97.0773 147.926 97.5115 147.926C97.7932 147.926 98.05 147.886 98.282 147.807C98.5141 147.724 98.7146 147.601 98.8836 147.439C99.0526 147.277 99.1819 147.076 99.2714 146.837L100.678 147.091C100.566 147.505 100.363 147.868 100.072 148.18C99.7835 148.488 99.4205 148.728 98.983 148.901C98.5489 149.07 98.0534 149.154 97.4965 149.154ZM109.344 149.154C108.628 149.154 108.003 148.99 107.47 148.662C106.936 148.334 106.522 147.875 106.227 147.285C105.932 146.695 105.784 146.005 105.784 145.217C105.784 144.424 105.932 143.732 106.227 143.138C106.522 142.545 106.936 142.085 107.47 141.756C108.003 141.428 108.628 141.264 109.344 141.264C110.06 141.264 110.685 141.428 111.218 141.756C111.752 142.085 112.166 142.545 112.461 143.138C112.756 143.732 112.903 144.424 112.903 145.217C112.903 146.005 112.756 146.695 112.461 147.285C112.166 147.875 111.752 148.334 111.218 148.662C110.685 148.99 110.06 149.154 109.344 149.154ZM109.349 147.906C109.813 147.906 110.197 147.784 110.502 147.538C110.807 147.293 111.033 146.967 111.178 146.559C111.328 146.151 111.402 145.702 111.402 145.212C111.402 144.724 111.328 144.277 111.178 143.869C111.033 143.458 110.807 143.129 110.502 142.88C110.197 142.631 109.813 142.507 109.349 142.507C108.881 142.507 108.494 142.631 108.185 142.88C107.881 143.129 107.653 143.458 107.504 143.869C107.359 144.277 107.286 144.724 107.286 145.212C107.286 145.702 107.359 146.151 107.504 146.559C107.653 146.967 107.881 147.293 108.185 147.538C108.494 147.784 108.881 147.906 109.349 147.906ZM116.049 144.466V149H114.563V141.364H115.99V142.607H116.084C116.26 142.202 116.535 141.877 116.909 141.632C117.287 141.387 117.763 141.264 118.336 141.264C118.857 141.264 119.312 141.374 119.703 141.592C120.094 141.808 120.398 142.129 120.613 142.557C120.829 142.984 120.936 143.513 120.936 144.143V149H119.45V144.322C119.45 143.768 119.306 143.336 119.017 143.024C118.729 142.709 118.333 142.552 117.829 142.552C117.484 142.552 117.178 142.626 116.909 142.776C116.644 142.925 116.434 143.143 116.278 143.432C116.126 143.717 116.049 144.062 116.049 144.466ZM126.221 149.154C125.469 149.154 124.821 148.993 124.277 148.672C123.737 148.347 123.319 147.891 123.024 147.305C122.733 146.715 122.587 146.024 122.587 145.232C122.587 144.449 122.733 143.76 123.024 143.163C123.319 142.567 123.73 142.101 124.257 141.766C124.788 141.432 125.407 141.264 126.117 141.264C126.548 141.264 126.965 141.335 127.37 141.478C127.774 141.621 128.137 141.844 128.458 142.149C128.78 142.454 129.033 142.85 129.219 143.337C129.405 143.821 129.497 144.41 129.497 145.102V145.629H123.427V144.516H128.041C128.041 144.125 127.961 143.778 127.802 143.477C127.643 143.172 127.419 142.931 127.131 142.756C126.846 142.58 126.511 142.492 126.127 142.492C125.709 142.492 125.344 142.595 125.033 142.8C124.725 143.003 124.486 143.268 124.317 143.596C124.151 143.921 124.068 144.274 124.068 144.655V145.525C124.068 146.035 124.158 146.469 124.337 146.827C124.519 147.185 124.773 147.459 125.098 147.648C125.422 147.833 125.802 147.926 126.236 147.926C126.518 147.926 126.775 147.886 127.007 147.807C127.239 147.724 127.439 147.601 127.608 147.439C127.777 147.277 127.907 147.076 127.996 146.837L129.403 147.091C129.29 147.505 129.088 147.868 128.796 148.18C128.508 148.488 128.145 148.728 127.708 148.901C127.273 149.07 126.778 149.154 126.221 149.154ZM132.772 146.072V145.977C132.779 145.361 132.84 144.87 132.956 144.506C133.076 144.141 133.245 143.846 133.464 143.621C133.682 143.395 133.946 143.19 134.254 143.004C134.453 142.878 134.632 142.737 134.791 142.582C134.95 142.426 135.076 142.247 135.169 142.045C135.262 141.843 135.308 141.619 135.308 141.374C135.308 141.079 135.238 140.823 135.099 140.608C134.96 140.393 134.774 140.227 134.542 140.111C134.314 139.991 134.058 139.932 133.777 139.932C133.522 139.932 133.278 139.985 133.046 140.091C132.814 140.197 132.622 140.363 132.469 140.588C132.317 140.81 132.229 141.097 132.206 141.448H130.694C130.718 140.852 130.868 140.348 131.147 139.937C131.425 139.522 131.793 139.209 132.25 138.997C132.711 138.785 133.22 138.679 133.777 138.679C134.387 138.679 134.92 138.793 135.378 139.022C135.835 139.247 136.19 139.564 136.441 139.972C136.697 140.376 136.824 140.848 136.824 141.388C136.824 141.76 136.766 142.094 136.65 142.393C136.534 142.688 136.369 142.951 136.153 143.183C135.941 143.415 135.686 143.621 135.388 143.8C135.106 143.975 134.877 144.158 134.701 144.347C134.529 144.536 134.403 144.759 134.324 145.018C134.244 145.276 134.201 145.596 134.194 145.977V146.072H132.772ZM133.523 149.094C133.251 149.094 133.018 148.998 132.822 148.806C132.627 148.611 132.529 148.375 132.529 148.1C132.529 147.828 132.627 147.596 132.822 147.404C133.018 147.209 133.251 147.111 133.523 147.111C133.792 147.111 134.024 147.209 134.219 147.404C134.418 147.596 134.517 147.828 134.517 148.1C134.517 148.282 134.471 148.45 134.378 148.602C134.289 148.751 134.169 148.871 134.02 148.96C133.871 149.05 133.705 149.094 133.523 149.094Z" fill="#F7921E"/>
<path d="M56.4971 151.784H137.505V152.739H56.4971V151.784Z" fill="#F7921E"/>
</svg>
